<svg id="图层_1" data-name="图层 1" xmlns="http://www.w3.org/2000/svg" viewBox="0 0 56.69 56.69"><defs><style>.cls-1{fill:#fff;}</style></defs><title>msp火星车 - 副本</title><path class="cls-1" d="M36,40.68l-19-.15.41-.86,18,.15Zm-21.28-.62a68.2,68.2,0,0,1-9-3.92A2.46,2.46,0,0,1,4.84,34L5,32.38a2.14,2.14,0,0,1,2.14-2.12H52.24a2.14,2.14,0,0,1,2.14,2.12,5.91,5.91,0,0,1-.24,2.78h0a3.64,3.64,0,0,1-1.4,1.34l-.14.08a59.77,59.77,0,0,1-9.21,3.92l-.2-.83a60.32,60.32,0,0,0,9-3.83l.15-.08a2.73,2.73,0,0,0,1.12-1.09l.35.25-.35-.25a6,6,0,0,0,.09-2.23v0a1.28,1.28,0,0,0-1.28-1.28H7.12A1.28,1.28,0,0,0,5.84,32.4v0L5.7,34.08c0,.26,0,1.08.43,1.33a68.92,68.92,0,0,0,9,3.89Z"/><path class="cls-1" d="M18.9,38.39A2.39,2.39,0,1,1,21.29,36,2.39,2.39,0,0,1,18.9,38.39Zm0-3.92A1.53,1.53,0,1,0,20.43,36,1.53,1.53,0,0,0,18.9,34.47Z"/><path class="cls-1" d="M12.1,52.21a4.78,4.78,0,1,1,4.78-4.77A4.78,4.78,0,0,1,12.1,52.21Zm0-8.69A3.92,3.92,0,1,0,16,47.44,3.93,3.93,0,0,0,12.1,43.52Z"/><path class="cls-1" d="M33.62,52.21a4.78,4.78,0,1,1,4.77-4.77A4.78,4.78,0,0,1,33.62,52.21Zm0-8.69a3.92,3.92,0,1,0,3.91,3.92A3.93,3.93,0,0,0,33.62,43.52Z"/><path class="cls-1" d="M48.65,52.21a4.78,4.78,0,1,1,4.78-4.77A4.78,4.78,0,0,1,48.65,52.21Zm0-8.69a3.92,3.92,0,1,0,3.92,3.92A3.92,3.92,0,0,0,48.65,43.52Z"/><path class="cls-1" d="M14.59,44.36l-2.48-1.25,5-7.31.27.81a1.3,1.3,0,0,0,.47.6,3.69,3.69,0,0,0,.66.37l.71,0Zm-1.21-1.57.93.46,3.51-5.07L17.43,38a1.78,1.78,0,0,1-.45-.4Zm5.18-5.2Z"/><path class="cls-1" d="M37.42,46l-.72-1-1.25-1.08,3.94-3.12.24.47A5.14,5.14,0,0,0,40,42a6.38,6.38,0,0,0,.82.64l.47.34Zm-.62-2.06.54.47.26.36L39.89,43a3.52,3.52,0,0,1-.51-.44,2.64,2.64,0,0,1-.27-.41Z"/><path class="cls-1" d="M44.83,45.78l-3.74-3,.7-.14a9.07,9.07,0,0,0,.81-.55c.4-.29.27-.6.42-1l.08-.54,3.94,3-.41.35c-.28.24-.73.64-.85.78s-.66.75-.68.78Zm-2.22-2.87,2.12,1.7.38-.43a5.92,5.92,0,0,1,.56-.55L43.45,42a2.19,2.19,0,0,1-.33.54A3,3,0,0,1,42.61,42.91Z"/><path class="cls-1" d="M39.45,41.44l-.14,0L19.42,37.66l.52-.57a2.41,2.41,0,0,0,.42-.8,2,2,0,0,0,.06-.95l-.13-.63,20.61,4,.08.06a.93.93,0,0,1,.35.57c0,.17-.24-.14-.58-.05s-.51.47-.72.71a1.91,1.91,0,0,0-.46,1.34ZM21,37.08,38.9,40.46a2.67,2.67,0,0,0,.7-.53l.43-.47L21.31,35.79a3,3,0,0,1-.13.78Q21.08,36.85,21,37.08Z"/><path class="cls-1" d="M47.2,29.79a5.29,5.29,0,0,1-5.29-5.29,4.55,4.55,0,0,1,.36-1.89,1,1,0,0,1,1.45-.49c1.63.91,5.26,3.21,7.08,4.46a.9.9,0,0,1,.38.62,1.29,1.29,0,0,1-.28.95h0A4.56,4.56,0,0,1,47.2,29.79Zm-4-6.94h-.05a.17.17,0,0,0-.1.1,3.56,3.56,0,0,0-.29,1.54,4.44,4.44,0,0,0,4.43,4.43,3.66,3.66,0,0,0,3-1.34h0a.44.44,0,0,0,.09-.27s0,0,0,0c-1.8-1.24-5.39-3.52-7-4.41A.16.16,0,0,0,43.21,22.85Z"/><path class="cls-1" d="M16.21,31.05h-5l0-.45a2.53,2.53,0,0,1,.35-1.17,2.45,2.45,0,0,1,1.52-1.13,2.46,2.46,0,0,1,3.07,2.31Zm-4-.87h3.07a1.62,1.62,0,0,0-1.93-1.07,1.61,1.61,0,0,0-1,.74A1.87,1.87,0,0,0,12.19,30.18Z"/><rect class="cls-1" x="48.62" y="23.62" width="0.86" height="2.59" transform="translate(-5.55 18.14) rotate(-19.86)"/><rect class="cls-1" x="47.06" y="23.8" width="1.47" height="0.86" transform="translate(3.4 54.24) rotate(-60.95)"/><rect class="cls-1" x="45.53" y="23.05" width="2.12" height="0.86" transform="translate(-2.73 6.47) rotate(-7.72)"/><path class="cls-1" d="M48.61,24.45A1.47,1.47,0,1,1,50.07,23,1.47,1.47,0,0,1,48.61,24.45Zm0-2.07a.61.61,0,1,0,0,1.21.61.61,0,0,0,0-1.21Z"/><path class="cls-1" d="M45.72,31.12H43.21l-.11-.06c-.08-.06-.78-.55-.37-1.92A4,4,0,0,1,43.5,28l.31-.32.31.31a3.78,3.78,0,0,0,.87.57c.21.11.89.41.89.41h0c.12.06.49.32.24,1.15a4.87,4.87,0,0,1-.3.81Zm-2.2-.86h1.65c0-.1.09-.24.15-.43a.63.63,0,0,0,0-.2l-.75-.35a5.22,5.22,0,0,1-.73-.43,2.18,2.18,0,0,0-.33.54A1.27,1.27,0,0,0,43.52,30.26Z"/><path class="cls-1" d="M19.27,25.52a1.67,1.67,0,1,1,1.67-1.67A1.66,1.66,0,0,1,19.27,25.52Zm0-2.47a.81.81,0,1,0,.81.8A.8.8,0,0,0,19.27,23.05Z"/><path class="cls-1" d="M15.36,29.9,15,29.57a1.85,1.85,0,0,0-.5-.33,6.1,6.1,0,0,0-.89-.26l-.75-.16,4.92-5.22.3.23a3.87,3.87,0,0,1,.54.52,1.29,1.29,0,0,0,.48.3l.62.21-.42.49Zm-.82-1.57.32.11a2.19,2.19,0,0,1,.43.24l3-3.49a2.32,2.32,0,0,1-.3-.26l-.14-.15Z"/><path class="cls-1" d="M18.06,24.4,8.84,19l.43-.74,8.46,5a3.49,3.49,0,0,1,.3-.43,2,2,0,0,1,.27-.24L9.82,17.48l.44-.74L20.72,23l-1.43.07a1,1,0,0,0-.62.31,4.51,4.51,0,0,0-.39.65Z"/><path class="cls-1" d="M13.38,47.44a1.28,1.28,0,1,1-1.28-1.29A1.28,1.28,0,0,1,13.38,47.44Z"/><path class="cls-1" d="M12.1,48.8a1.37,1.37,0,1,1,1.37-1.36A1.37,1.37,0,0,1,12.1,48.8Zm0-2.56a1.2,1.2,0,1,0,1.2,1.2A1.2,1.2,0,0,0,12.1,46.24Z"/><path class="cls-1" d="M34.9,47.44a1.28,1.28,0,1,1-1.28-1.29A1.28,1.28,0,0,1,34.9,47.44Z"/><path class="cls-1" d="M33.62,48.8A1.37,1.37,0,1,1,35,47.44,1.36,1.36,0,0,1,33.62,48.8Zm0-2.56a1.2,1.2,0,1,0,0,2.39,1.2,1.2,0,0,0,0-2.39Z"/><path class="cls-1" d="M49.93,47.44a1.28,1.28,0,1,1-1.28-1.29A1.28,1.28,0,0,1,49.93,47.44Z"/><path class="cls-1" d="M48.65,48.8A1.37,1.37,0,1,1,50,47.44,1.37,1.37,0,0,1,48.65,48.8Zm0-2.56a1.2,1.2,0,1,0,1.2,1.2A1.19,1.19,0,0,0,48.65,46.24Z"/><path class="cls-1" d="M36.37,12.16h-8.2a2,2,0,0,1-2-2v-3a2,2,0,0,1,2-2h8.2a2,2,0,0,1,2,2v3A2,2,0,0,1,36.37,12.16Zm-8.2-6.07a1.12,1.12,0,0,0-1.12,1.12v3a1.12,1.12,0,0,0,1.12,1.12h8.2a1.12,1.12,0,0,0,1.12-1.12v-3a1.12,1.12,0,0,0-1.12-1.12Z"/><path class="cls-1" d="M29.51,9.76A1.54,1.54,0,1,1,31,8.23,1.54,1.54,0,0,1,29.51,9.76Zm0-2.21a.68.68,0,1,0,0,1.35.68.68,0,0,0,0-1.35Z"/><path class="cls-1" d="M34.74,31.12H29.57V20.43h5.17Zm-4.31-.86h3.45v-9H30.43Z"/><path class="cls-1" d="M33.7,21.29H30.61V11.36H33.7Zm-2.23-.86h1.37V12.22H31.47Z"/><path class="cls-1" d="M41.35,43.38A2.39,2.39,0,1,1,43.74,41,2.39,2.39,0,0,1,41.35,43.38Zm0-3.92A1.53,1.53,0,1,0,42.88,41,1.53,1.53,0,0,0,41.35,39.46Z"/><path class="cls-1" d="M5,16.45,2.88,15.17a1.25,1.25,0,0,1-.42-1.72,1.23,1.23,0,0,1,.77-.57,1.26,1.26,0,0,1,.95.14l2.13,1.29L5.87,15,3.74,13.76a.4.4,0,0,0-.3,0,.45.45,0,0,0-.25.18.39.39,0,0,0,.14.54l2.13,1.29Z"/><path class="cls-1" d="M7.76,19.8a3,3,0,1,1,3.05-3A3,3,0,0,1,7.76,19.8Zm0-5.23A2.19,2.19,0,1,0,10,16.76,2.19,2.19,0,0,0,7.76,14.57Z"/><path class="cls-1" d="M3.57,19.24a1.25,1.25,0,0,1-.07-2.5l1.63-.09a4.81,4.81,0,0,0,.45,1c.37.66.92,1.41.55,1.43l-2.49.14ZM5.28,17.5l-1.73.09a.4.4,0,0,0-.37.42.39.39,0,0,0,.41.37l2-.11Z"/><path class="cls-1" d="M6.45,14.52l-.24-2a1.25,1.25,0,1,1,2.49-.3l.23,1.94Zm1-2.55h0a.38.38,0,0,0-.34.43l.21,1.75h.79l-.22-1.84A.41.41,0,0,0,7.46,12Z"/><path class="cls-1" d="M49,43.35a.4.4,0,0,1-.43.36h0a.4.4,0,0,1-.43-.36v-.79a.41.41,0,0,1,.43-.37h0a.4.4,0,0,1,.43.37Z"/><path class="cls-1" d="M49,52.35a.4.4,0,0,1-.43.36h0a.4.4,0,0,1-.43-.36v-.8a.4.4,0,0,1,.43-.36h0a.4.4,0,0,1,.43.36Z"/><path class="cls-1" d="M45.38,51.14a.4.4,0,0,1-.55-.11h0a.39.39,0,0,1,0-.56l.62-.5a.4.4,0,0,1,.55.1h0a.41.41,0,0,1,0,.57Z"/><path class="cls-1" d="M45.39,43.71a.4.4,0,0,0-.55.1h0a.41.41,0,0,0,0,.57l.61.5a.41.41,0,0,0,.56-.11h0a.4.4,0,0,0,0-.56Z"/><path class="cls-1" d="M51.73,50.09a.4.4,0,0,0-.55.11h0a.39.39,0,0,0,0,.56l.61.5a.41.41,0,0,0,.56-.1h0a.41.41,0,0,0,0-.57Z"/><path class="cls-1" d="M51.79,44.91a.42.42,0,0,1-.56-.11h0a.4.4,0,0,1,0-.56l.62-.5a.4.4,0,0,1,.55.1h0a.39.39,0,0,1,0,.56Z"/><path class="cls-1" d="M44.56,47.05a.4.4,0,0,1,.36.43h0a.4.4,0,0,1-.36.43h-.8a.4.4,0,0,1-.36-.43h0a.4.4,0,0,1,.36-.43Z"/><path class="cls-1" d="M53.5,47.05a.4.4,0,0,1,.36.43h0a.4.4,0,0,1-.36.43h-.8a.4.4,0,0,1-.36-.43h0a.4.4,0,0,1,.36-.43Z"/><path class="cls-1" d="M34,43.35a.4.4,0,0,1-.43.36h0a.39.39,0,0,1-.42-.36v-.79a.4.4,0,0,1,.42-.37h0a.4.4,0,0,1,.43.37Z"/><path class="cls-1" d="M34,52.35a.4.4,0,0,1-.43.36h0a.39.39,0,0,1-.42-.36v-.8a.39.39,0,0,1,.42-.36h0a.4.4,0,0,1,.43.36Z"/><path class="cls-1" d="M30.42,51.14a.4.4,0,0,1-.55-.11h0a.4.4,0,0,1,0-.56l.62-.5a.4.4,0,0,1,.55.1h0a.41.41,0,0,1,0,.57Z"/><path class="cls-1" d="M30.43,43.71a.4.4,0,0,0-.55.1h0a.41.41,0,0,0,0,.57l.62.5a.4.4,0,0,0,.55-.11h0a.4.4,0,0,0,0-.56Z"/><path class="cls-1" d="M36.77,50.09a.4.4,0,0,0-.55.11h0a.4.4,0,0,0,0,.56l.62.5a.4.4,0,0,0,.55-.1h0a.41.41,0,0,0,0-.57Z"/><path class="cls-1" d="M36.83,44.91a.41.41,0,0,1-.55-.11h0a.39.39,0,0,1,0-.56l.61-.5a.4.4,0,0,1,.55.1h0a.4.4,0,0,1,0,.56Z"/><path class="cls-1" d="M29.54,47.05a.4.4,0,0,1,.36.43h0a.4.4,0,0,1-.36.43h-.79a.4.4,0,0,1-.36-.43h0a.4.4,0,0,1,.36-.43Z"/><path class="cls-1" d="M38.54,47.05a.4.4,0,0,1,.36.43h0a.4.4,0,0,1-.36.43h-.8a.4.4,0,0,1-.36-.43h0a.4.4,0,0,1,.36-.43Z"/><path class="cls-1" d="M12.55,43.35a.4.4,0,0,1-.43.36h0a.4.4,0,0,1-.43-.36v-.79a.41.41,0,0,1,.43-.37h0a.4.4,0,0,1,.43.37Z"/><path class="cls-1" d="M12.55,52.35a.4.4,0,0,1-.43.36h0a.4.4,0,0,1-.43-.36v-.8a.4.4,0,0,1,.43-.36h0a.4.4,0,0,1,.43.36Z"/><path class="cls-1" d="M8.93,51.14A.4.4,0,0,1,8.38,51h0a.4.4,0,0,1,0-.56L9,50a.4.4,0,0,1,.55.1h0a.41.41,0,0,1,0,.57Z"/><path class="cls-1" d="M8.94,43.71a.4.4,0,0,0-.55.1h0a.41.41,0,0,0,0,.57l.62.5a.4.4,0,0,0,.55-.11h0a.4.4,0,0,0,0-.56Z"/><path class="cls-1" d="M15.28,50.09a.4.4,0,0,0-.55.11h0a.39.39,0,0,0,0,.56l.62.5a.4.4,0,0,0,.55-.1h0a.41.41,0,0,0,0-.57Z"/><path class="cls-1" d="M15.34,44.91a.41.41,0,0,1-.55-.11h0a.39.39,0,0,1,0-.56l.61-.5a.4.4,0,0,1,.55.1h0a.39.39,0,0,1,0,.56Z"/><path class="cls-1" d="M8,47.05a.4.4,0,0,1,.36.43h0a.4.4,0,0,1-.36.43H7.23a.4.4,0,0,1-.36-.43h0a.4.4,0,0,1,.36-.43Z"/><path class="cls-1" d="M17.05,47.05a.4.4,0,0,1,.36.43h0a.4.4,0,0,1-.36.43h-.8a.4.4,0,0,1-.36-.43h0a.4.4,0,0,1,.36-.43Z"/><path class="cls-1" d="M30.62,6H29.2A1,1,0,1,1,29.2,4h1.42a1,1,0,1,1,0,2.07ZM29.2,4.83A.18.18,0,0,0,29,5a.18.18,0,0,0,.18.17h1.42A.18.18,0,0,0,30.8,5a.18.18,0,0,0-.18-.18Z"/></svg>